#!OML:ASF F:\VICON\USERDATA\INSTALL\Justin_Nancy\Justin_Nancy.ASF
:FULLY-SPECIFIED
:DEGREES
49
root 14.3878 16.7986 -13.353 -2.78978 -9.11454 2.35053
lowerback 11.1996 1.33241 -2.55117
upperback -0.174895 1.48136 0.686629
thorax -6.56075 0.820686 1.91439
lowerneck -19.4291 -2.50847 -9.18989
upperneck 22.2689 -2.47416 6.97242
head 10.5657 -1.07896 3.68475
rclavicle 1.97791e-014 1.59028e-015
rhumerus -55.3997 9.63267 -92.6458
rradius 109.165
rwrist -11.3659
rhand -6.25854 21.1981
rfingers 7.12502
rthumb 19.5838 -7.83554
lclavicle 1.97791e-014 1.59028e-015
lhumerus -38.5365 -6.33326 88.1937
lradius 97.1658
lwrist 15.8563
lhand -19.2392 6.30416
lfingers 7.12502
lthumb 7.07423 36.1659
rfemur -19.1044 -10.6063 16.8958
rtibia 87.1518
rfoot 0.940444 -7.08981
rtoes 2.69649
lfemur -19.0957 -1.10816 -15.3244
ltibia 46.8288
lfoot -14.8529 3.80166
ltoes -25.0064
50
root 14.372 16.8279 -13.0635 -2.89125 -9.59893 2.48754
lowerback 11.4548 1.17623 -2.65521
upperback 0.0565966 1.25975 0.775954
thorax -6.45146 0.712721 2.10323
lowerneck -20.1873 -2.32775 -9.36055
upperneck 22.5685 -2.05811 6.80455
head 10.7809 -0.916485 3.72489
rclavicle -2.41026e-015 -1.19271e-014
rhumerus -55.996 9.70754 -92.5915
rradius 110.004
rwrist -12.7304
rhand -5.88164 21.3634
rfingers 7.12502
rthumb 19.9461 -7.63297
lclavicle -2.41026e-015 -1.19271e-014
lhumerus -37.7852 -5.69762 87.8407
lradius 97.6816
lwrist 16.9698
lhand -19.4036 5.82281
lfingers 7.12502
lthumb 6.9156 35.6899
rfemur -21.2173 -11.4206 17.0358
rtibia 87.206
rfoot 0.14833 -6.2381
rtoes 0.909293
lfemur -18.7178 -0.962804 -15.4272
ltibia 48.3466
lfoot -14.4759 2.8116
ltoes -25.8886
51
root 14.3515 16.9064 -12.7606 -3.23853 -10.3524 2.38048
lowerback 11.7254 1.11342 -2.41544
upperback 0.491778 1.2087 0.872913
thorax -6.13615 0.672501 2.07822
lowerneck -20.6293 -2.18729 -9.52078
upperneck 22.6143 -1.74574 6.73374
head 10.8535 -0.791343 3.77664
rclavicle -7.30534e-015 7.55382e-015
rhumerus -56.5432 9.74743 -92.5725
rradius 110.927
rwrist -13.7786
rhand -5.50633 21.6441
rfingers 7.12502
rthumb 20.3069 -7.31425
lclavicle -7.30534e-015 7.55382e-015
lhumerus -36.8911 -4.91615 87.4727
lradius 98.1627
lwrist 17.6854
lhand -19.3829 5.47768
lfingers 7.12502
lthumb 6.93557 35.3441
rfemur -22.6389 -11.7388 17.4842
rtibia 86.5191
rfoot -1.61432 -5.30362
rtoes -4.18393
lfemur -18.2495 -0.810126 -15.3033
ltibia 50.1849
lfoot -13.0707 1.94053
ltoes -27.9877
52
root 14.3224 16.9916 -12.4632 -3.49571 -11.0022 2.46875
lowerback 12.0233 1.11151 -2.411
upperback 0.820674 1.19894 0.858408
thorax -5.95389 0.660896 2.06066
lowerneck -20.7833 -2.06639 -9.42612
upperneck 22.4295 -1.54668 6.5896
head 10.7935 -0.705218 3.73322
rclavicle 1.09083e-014 -9.14409e-015
rhumerus -57.1689 9.57261 -92.6561
rradius 111.839
rwrist -14.2265
rhand -5.35179 22.0227
rfingers 7.12502
rthumb 20.4554 -6.91981
lclavicle 1.09083e-014 -9.14409e-015
lhumerus -36.042 -4.37722 87.0338
lradius 98.5236
lwrist 18.3533
lhand -19.4192 6.24787
lfingers 7.12502
lthumb 6.90049 36.1154
rfemur -23.9041 -12.0067 17.7385
rtibia 85.419
rfoot -1.96123 -4.60967
rtoes -2.73718
lfemur -18.3123 -0.576153 -15.3051
ltibia 52.4376
lfoot -10.9474 0.666835
ltoes -29.9767
53
root 14.2908 17.0668 -12.1805 -3.6793 -11.4518 2.60585
lowerback 12.6424 1.12856 -2.59557
upperback 0.884232 1.18282 0.900585
thorax -6.23665 0.66067 2.20574
lowerneck -20.6123 -1.99524 -9.37291
upperneck 22.1169 -1.41879 6.39025
head 10.633 -0.664142 3.6601
rclavicle 1.00386e-014 -5.96354e-015
rhumerus -58.0262 9.35545 -92.6603
rradius 112.68
rwrist -14.1289
rhand -5.33609 22.5147
rfingers 7.12502
rthumb 20.4705 -6.42622
lclavicle 1.00386e-014 -5.96354e-015
lhumerus -35.6272 -3.95321 86.7032
lradius 99.0018
lwrist 18.8998
lhand -19.3725 6.70105
lfingers 7.12502
lthumb 6.94554 36.5671
rfemur -25.2518 -12.3978 17.9702
rtibia 84.0607
rfoot -2.83393 -3.42194
rtoes -4.39752
lfemur -18.8259 0.0118078 -15.2398
ltibia 55.0248
lfoot -8.06969 -1.17007
ltoes -32.0204
54
root 14.2594 17.1321 -11.899 -3.77978 -11.9249 2.49035
lowerback 13.4336 1.10501 -2.61403
upperback 0.674295 1.13916 1.06839
thorax -6.90449 0.653354 2.3932
lowerneck -20.0674 -1.92175 -9.50781
upperneck 22.1128 -1.31134 6.32862
head 10.52 -0.641525 3.67201
rclavicle -2.41026e-014 1.98785e-015
rhumerus -59.3181 9.41509 -92.8101
rradius 113.391
rwrist -13.6548
rhand -5.38499 22.2837
rfingers 7.12502
rthumb 20.4235 -6.66224
lclavicle -2.41026e-014 1.98785e-015
lhumerus -36.0214 -3.44289 86.5051
lradius 99.7487
lwrist 19.354
lhand -19.3991 6.45242
lfingers 7.12502
lthumb 6.91986 36.3193
rfemur -26.6071 -12.5783 18.5029
rtibia 82.4461
rfoot -2.3932 -2.82938
rtoes -1.37675
lfemur -19.701 1.17931 -14.8169
ltibia 57.7644
lfoot -4.3419 -3.65651
ltoes -34.5594
55
root 14.2235 17.1938 -11.6172 -3.76741 -12.1916 2.33563
lowerback 13.7766 1.01688 -2.45005
upperback 0.75785 1.0436 1.13469
thorax -6.99939 0.602447 2.38689
lowerneck -19.805 -1.93995 -9.52926
upperneck 21.9795 -1.34847 6.30825
head 10.4257 -0.664228 3.65737
rclavicle -3.17062e-014 9.93923e-015
rhumerus -60.076 9.43673 -92.9303
rradius 114.015
rwrist -13.2851
rhand -5.4118 22.1557
rfingers 7.12502
rthumb 20.3977 -6.79297
lclavicle -3.17062e-014 9.93923e-015
lhumerus -35.9939 -3.04702 86.1765
lradius 100.437
lwrist 19.6329
lhand -19.4252 6.37491
lfingers 7.12502
lthumb 6.89471 36.2426
rfemur -27.9002 -12.7342 19.0629
rtibia 80.5676
rfoot -3.06323 -2.02406
rtoes -2.85689
lfemur -21.2272 2.07655 -14.265
ltibia 60.1984
lfoot 0.798792 -6.68578
ltoes -34.9702
56
root 14.1799 17.2513 -11.3332 -3.84048 -12.3561 2.08654
lowerback 13.8433 0.959477 -2.23356
upperback 1.2931 1.00385 1.21589
thorax -6.46047 0.563855 2.35904
lowerneck -20.3011 -1.96619 -9.41902
upperneck 21.7126 -1.36732 6.32816
head 10.4227 -0.649951 3.63978
rclavicle -2.84759e-014 -1.03368e-014
rhumerus -59.8879 9.35957 -92.8408
rradius 114.367
rwrist -12.9378
rhand -5.5086 22.524
rfingers 7.12502
rthumb 20.3047 -6.43458
lclavicle -2.84759e-014 -1.03368e-014
lhumerus -35.2921 -2.75008 85.8759
lradius 101.005
lwrist 19.5622
lhand -19.7257 5.89685
lfingers 7.12502
lthumb 6.60467 35.7739
rfemur -28.8414 -12.9075 19.6586
rtibia 78.4229
rfoot -3.84858 -1.36999
rtoes -4.89195
lfemur -22.805 2.65541 -13.4885
ltibia 62.0457
lfoot 6.64207 -9.65808
ltoes -31.0828
57
root 14.1356 17.3216 -11.0379 -4.12494 -12.7936 1.47757
lowerback 14.145 0.968965 -1.73179
upperback 1.85956 1.09984 1.45085
thorax -6.02619 0.588659 2.30426
lowerneck -20.7122 -2.0349 -9.4394
upperneck 21.3948 -1.43015 6.42273
head 10.3906 -0.65816 3.66306
rclavicle -2.06736e-014 -6.36111e-015
rhumerus -59.71 9.48544 -92.6548
rradius 114.641
rwrist -12.5909
rhand -5.73944 22.4838
rfingers 7.12502
rthumb 20.0828 -6.49823
lclavicle -2.06736e-014 -6.36111e-015
lhumerus -34.6415 -2.46131 85.5887
lradius 101.544
lwrist 19.3874
lhand -19.7733 5.23652
lfingers 7.12502
lthumb 6.55865 35.115
rfemur -29.1462 -12.8152 20.4928
rtibia 75.9116
rfoot -4.62173 -0.840437
rtoes -6.50817
lfemur -23.6084 3.06449 -12.2228
ltibia 63.3782
lfoot 10.0802 -11.361
ltoes -17.6212
58
root 14.0925 17.3941 -10.7421 -4.41977 -13.315 0.675995
lowerback 14.9864 1.03185 -0.958119
upperback 2.02799 1.30496 1.60549
thorax -6.30894 0.671947 1.98206
lowerneck -20.3617 -2.18072 -9.46022
upperneck 21.1441 -1.7403 6.75494
head 10.2654 -0.763348 3.73365
rclavicle 1.23246e-014 -3.18055e-015
rhumerus -60.2881 9.41631 -92.707
rradius 115.041
rwrist -12.3816
rhand -6.03398 22.2169
rfingers 7.12502
rthumb 19.7997 -6.79466
lclavicle 1.23246e-014 -3.18055e-015
lhumerus -34.7206 -2.60523 85.1857
lradius 102.217
lwrist 19.069
lhand -19.6254 4.84055
lfingers 7.12502
lthumb 6.70147 34.7145
rfemur -29.1516 -12.594 21.3974
rtibia 73.1701
rfoot -5.73072 -0.22794
rtoes -9.64559
lfemur -23.9912 3.29752 -10.738
ltibia 64.2397
lfoot 8.95387 -10.6154
ltoes -19.5801
59
root 14.0538 17.4399 -10.4515 -4.70384 -13.7018 0.0200849
lowerback 16.0784 1.09354 -0.207473
upperback 2.09614 1.51303 1.63631
thorax -6.82759 0.754962 1.53331
lowerneck -20.1999 -2.276 -9.47814
upperneck 21.2249 -1.9952 7.17633
head 10.2917 -0.835244 3.85439
rclavicle 1.14798e-014 -8.34896e-015
rhumerus -60.7991 9.19643 -92.7875
rradius 115.395
rwrist -12.4031
rhand -5.92907 21.7796
rfingers 7.12502
rthumb 19.9005 -7.22152
lclavicle 1.14798e-014 -8.34896e-015
lhumerus -35.0531 -2.93941 84.8259
lradius 103.062
lwrist 18.6766
lhand -19.2613 4.31436
lfingers 7.12502
lthumb 7.05291 34.1768
rfemur -29.2021 -12.5574 22.029
rtibia 70.3912
rfoot -6.2468 0.449691
rtoes -12.3498
lfemur -24.3133 3.32474 -9.43532
ltibia 64.4911
lfoot 7.15559 -7.79417
ltoes -24.3326
60
root 14.0164 17.482 -10.1562 -4.75633 -13.8831 -0.505218
lowerback 16.6713 1.02515 0.424941
upperback 2.34646 1.54048 1.73978
thorax -6.8715 0.750641 1.27259
lowerneck -20.7909 -2.37502 -9.5169
upperneck 21.4238 -2.09349 7.26358
head 10.4852 -0.866211 3.88722
rclavicle -4.77083e-015 -1.31198e-014
rhumerus -60.5967 9.3872 -92.6316
rradius 115.462
rwrist -12.5495
rhand -5.93723 21.3119
rfingers 7.12502
rthumb 19.8927 -7.68997
lclavicle -4.77083e-015 -1.31198e-014
lhumerus -34.8992 -2.99017 84.6665
lradius 103.669
lwrist 18.4363
lhand -19.1942 4.13473
lfingers 7.12502
lthumb 7.11766 33.995
rfemur -29.5081 -12.7304 22.4904
rtibia 67.6193
rfoot -6.07501 0.656257
rtoes -13.9288
lfemur -24.7152 2.8937 -8.33937
ltibia 64.0287
lfoot 6.98234 -3.42765
ltoes -21.982
61
root 13.9808 17.5232 -9.85552 -4.65707 -13.8687 -0.652557
lowerback 16.944 0.923163 0.761955
upperback 2.46053 1.46533 1.71353
thorax -6.88731 0.704254 1.06736
lowerneck -20.7755 -2.56635 -9.49281
upperneck 21.3248 -2.35106 7.19953
head 10.471 -0.989075 3.81822
rclavicle 1.29707e-014 -6.75868e-015
rhumerus -60.4507 9.61961 -92.5478
rradius 115.322
rwrist -12.5253
rhand -6.14773 21.1813
rfingers 7.12502
rthumb 19.6903 -7.8415
lclavicle 1.29707e-014 -6.75868e-015
lhumerus -35.0637 -3.04328 84.4793
lradius 104.312
lwrist 18.6033
lhand -18.8884 4.71147
lfingers 7.12502
lthumb 7.41287 34.5616
rfemur -30.0037 -13.1434 22.4763
rtibia 64.9391
rfoot -5.89013 0.736744
rtoes -14.6841
lfemur -25.064 2.05559 -7.64937
ltibia 62.7746
lfoot 6.50254 0.278658
ltoes -19.7869
